<svg xmlns="http://www.w3.org/2000/svg" width="32" height="32" viewBox="0 0 32 32" fill="none">
  <rect width="32" height="32" rx="7" fill="url(#bg-grad)"/>
  <line x1="6" y1="21" x2="26" y2="21" stroke="rgba(255,255,255,0.12)" stroke-width="0.5"/>
  <line x1="6" y1="16" x2="26" y2="16" stroke="rgba(255,255,255,0.12)" stroke-width="0.5"/>
  <line x1="6" y1="11" x2="26" y2="11" stroke="rgba(255,255,255,0.12)" stroke-width="0.5"/>
  <line x1="10" y1="8" x2="10" y2="24" stroke="rgba(255,255,255,0.08)" stroke-width="0.5"/>
  <line x1="15" y1="8" x2="15" y2="24" stroke="rgba(255,255,255,0.08)" stroke-width="0.5"/>
  <line x1="20" y1="8" x2="20" y2="24" stroke="rgba(255,255,255,0.08)" stroke-width="0.5"/>
  <line x1="25" y1="8" x2="25" y2="24" stroke="rgba(255,255,255,0.08)" stroke-width="0.5"/>

  <!-- Candlestick 1 (bearish/green - down day) -->
  <line x1="9" y1="12" x2="9" y2="21" stroke="rgba(255,255,255,0.7)" stroke-width="1"/>
  <rect x="7" y="14" width="4" height="5" rx="0.5" fill="rgba(255,255,255,0.4)"/>

  <!-- Candlestick 2 (bullish/red) -->
  <line x1="14" y1="10" x2="14" y2="20" stroke="#ef4444" stroke-width="1"/>
  <rect x="12" y="13" width="4" height="7" rx="0.5" fill="#ef4444"/>

  <!-- Candlestick 3 (bullish/red, higher) -->
  <line x1="19" y1="8" x2="19" y2="18" stroke="#ef4444" stroke-width="1"/>
  <rect x="17" y="11" width="4" height="7" rx="0.5" fill="#ef4444"/>

  <!-- Candlestick 4 (bullish/red, highest) -->
  <line x1="24" y1="7" x2="24" y2="17" stroke="#ef4444" stroke-width="1.2"/>
  <rect x="22" y="10" width="4" height="7" rx="0.5" fill="#ef4444"/>

  <defs>
    <linearGradient id="bg-grad" x1="0" y1="0" x2="32" y2="32">
      <stop offset="0%" stop-color="#7c3aed"/>
      <stop offset="100%" stop-color="#4f46e5"/>
    </linearGradient>
  </defs>
</svg>
